<?xml version="1.0" encoding="utf-8"?>
<!-- Generator: Adobe Illustrator 19.0.0, SVG Export Plug-In . SVG Version: 6.00 Build 0)  -->
<svg version="1.1" id="レイヤー_1" xmlns="http://www.w3.org/2000/svg" xmlns:xlink="http://www.w3.org/1999/xlink" x="0px"
	 y="0px" viewBox="0 0 595.3 841.9" style="enable-background:new 0 0 595.3 841.9;" xml:space="preserve">
<g id="XMLID_36_">
	<g id="XMLID_252_">
		<path id="XMLID_253_" d="M316.7,348c1.5,0.1,3,0,4.5,0c0.6,0,0.8-0.2,0.9-0.7c0.3-1.3,0.7-2.6,1-3.9c0.8-3.2,1.7-6.4,2.6-9.8
			c0.3,1,0.5,1.8,0.7,2.6c1,3.7,2,7.4,3,11.1c0.1,0.4,0.2,0.9,0.8,0.8c1.7,0,3.4,0,5.1,0c2.4-7.5,4.8-15,7.2-22.6c-1.7,0-3.4,0-5,0
			c-0.8,0-1,0.3-1.2,0.9c-0.7,2.5-1.4,4.9-2.1,7.4c-0.6,2.1-1.2,4.1-1.9,6.5c-1.3-5.1-2.5-9.9-3.8-14.8c-1.6,0-3.2,0-4.8,0
			c-0.7,0-1,0.2-1.2,0.9c-1.2,4.5-2.4,9-3.6,13.9c-1.5-5.1-2.8-9.9-4.2-14.7h-5.8c2.3,7.4,4.6,14.7,7,22
			C316,347.7,316.4,348,316.7,348z M387.9,317h-6.1v31h6.1V317z M356.5,333.8c-0.4,0.2-0.8,0.2-1.2,0.3c-2.3,0.6-4.7,1-7,1.8
			c-3,1-4.3,3.4-4.1,6.6c0.2,2.7,2.1,5,4.9,5.7c3.1,0.7,6,0.2,8.5-1.8c0.3-0.2,0.6-0.5,1-0.8c0.2,0.7,0.4,1.3,0.6,1.9
			c0.1,0.2,0.4,0.5,0.6,0.5c1.8,0,3.5,0,5.4,0c-1.3-2.5-1.4-5.1-1.4-7.7c0-3,0.1-5.9,0-8.9c-0.1-3.4-1.7-5.3-5-6
			c-2.6-0.6-5.2-0.6-7.8-0.1c-3.3,0.6-5.9,3.2-6.2,6.2c1.7,0.3,3.4,0.6,5.2,0.9c1.2-3.1,3.5-3.2,6.5-2.5c1.1,0.3,1.6,1.4,1.6,2.9
			C358.1,333.8,357.1,333.5,356.5,333.8z M358.1,339.9c-0.1,2.8-2.5,4.8-5.3,4.4c-1.4-0.2-2.6-1.4-2.8-2.8c-0.1-1.2,0.7-2.3,2.1-2.7
			c1.9-0.6,3.9-1,5.9-1.5C358.1,338.2,358.1,339,358.1,339.9z M406.9,348.3c5.4-1.1,9-5.7,9-11.6c0-3.1-0.9-5.7-2.7-7.8
			c-3.2-3.7-8.4-5-13.2-3.3c-4.4,1.6-7.2,5.6-7.4,10.6C392.4,344.5,398.8,349.9,406.9,348.3z M399.3,333.4c0.8-2.3,3-3.7,5.3-3.5
			c2.5,0.2,4.4,2,4.9,4.6c0.2,0.8,0.2,1.6,0.3,2.7c-0.2,0.9-0.3,2.1-0.8,3.2c-0.8,2.1-2.5,3.3-4.8,3.3c-2.2,0-4.1-1.2-4.9-3.3
			C398.5,338,398.5,335.7,399.3,333.4z M299.5,333.5c-1,0.3-2.1,0.6-3.1,0.8c-2.2,0.6-4.4,0.9-6.5,1.7c-4.1,1.6-5.1,7.1-2.1,10.3
			c2.1,2.2,4.9,2.4,7.7,2c2-0.3,3.6-1.4,5.1-2.7c0.2,0.7,0.3,1.3,0.6,1.8c0.1,0.3,0.4,0.6,0.7,0.6c1.8,0.1,3.5,0,5.4,0
			c-1.9-4-1.2-8.1-1.3-12.1c0-1.6,0-3.1-0.1-4.7c-0.2-3.2-1.7-5.2-4.9-5.8c-2.2-0.4-4.5-0.5-6.7-0.4c-3.9,0.2-6.5,2.3-7.5,6.3
			c1.5,0.3,2.9,0.5,4.3,0.8c0.1,0,0.3,0.1,0.4,0.1c0.3-0.2,0.8-0.3,0.9-0.6c0.6-1.1,1.4-1.9,2.6-2.1c0.9-0.1,1.7-0.1,2.6,0
			c1.8,0.2,2.6,1.3,2.4,3.1C300,333,299.7,333.4,299.5,333.5z M299.9,340.9c-0.4,2.4-3.7,4.1-5.9,3.1c-1.2-0.5-1.9-1.6-1.9-2.8
			c0-1.2,0.6-2.1,2-2.5c1.9-0.6,3.9-1,5.9-1.5C299.9,338.5,300.1,339.8,299.9,340.9z M201.9,333.8c-0.4,0.2-0.9,0.2-1.3,0.3
			c-2.3,0.6-4.7,1-7,1.8c-2.9,1-4.4,3.5-4.2,6.4c0.2,2.9,2.1,5.2,5,5.9c3.2,0.8,6.2,0.2,8.7-2c0.2-0.2,0.5-0.4,0.8-0.6
			c0.2,0.7,0.3,1.2,0.6,1.7c0.1,0.3,0.5,0.6,0.8,0.6c1.7,0.1,3.4,0,5.4,0c-1.5-2.6-1.4-5.2-1.4-7.8c0-3.1,0-6.2-0.1-9.3
			c-0.2-3-1.7-4.9-4.7-5.4c-2.3-0.4-4.6-0.6-6.9-0.4c-4.2,0.4-6.5,2.5-7.4,6.3c1.6,0.3,3.2,0.6,4.8,0.8c0.2,0,0.6-0.2,0.8-0.4
			c1.3-2.2,4.4-3.1,6.6-1.8c1.1,0.6,1.2,1.7,1.2,2.8C203.4,333.8,202.5,333.5,201.9,333.8z M203.5,337.2c-0.1,1.5-0.1,2.8-0.4,4.1
			c-0.6,2.3-3.8,3.7-5.9,2.7c-1.1-0.5-1.9-1.6-1.9-2.8c0.1-1.3,0.8-2.1,1.9-2.4C199.3,338.2,201.3,337.8,203.5,337.2z M426.4,354.7
			c-27.4,0-54.8,0-82.3,0c-57.7,0-115.4,0-173,0c-0.4,0-0.8-0.1-1.1,0.1c-0.3,0.2-0.7,0.6-0.7,0.9c0,0.3,0.4,0.7,0.7,0.8
			c0.3,0.1,0.7,0,1.1,0c42.5,0,85.1,0,127.6,0c42.6,0,85.1,0,127.7,0c0.7,0,1.7,0.3,1.7-0.9C428.1,354.5,427.1,354.7,426.4,354.7z
			 M163.2,351.4c-2.2,0-4.1,1.9-4.1,4.1c0,2.2,1.8,4,4.1,4c2.2,0,4-1.8,4-4C167.2,353.3,165.4,351.4,163.2,351.4z M163.1,357.8
			c-1.3,0-2.4-1-2.4-2.2c0-1.2,1.1-2.2,2.4-2.2c1.3,0,2.4,1,2.4,2.2C165.5,356.8,164.5,357.8,163.1,357.8z M437.8,317h-24.6v5.2h9.3
			V348h6.2v-25.8h9.2V317z M434.1,351.4c-2.2,0-4,1.8-4,4c0,2.2,1.7,4,4,4c2.2,0,4-1.7,4.1-3.9C438.2,353.3,436.3,351.4,434.1,351.4
			z M434.1,357.8c-1.3,0-2.4-1-2.3-2.2c0-1.3,1-2.2,2.4-2.2c1.3,0,2.4,1,2.4,2.2C436.5,356.8,435.4,357.8,434.1,357.8z M252.6,333.8
			c-0.4,0.2-0.8,0.2-1.2,0.3c-2.4,0.6-4.8,1-7.1,1.8c-2.9,1-4.2,3.3-4.1,6.5c0.1,2.7,1.9,5.1,4.6,5.7c1.6,0.4,3.3,0.5,4.9,0.1
			c1.7-0.4,3.3-1.5,5-2.2c0.1,0.3,0.3,0.9,0.5,1.5c0.1,0.2,0.3,0.5,0.5,0.5c1.8,0,3.6,0,5.3,0c-0.3-1.6-0.8-3.1-0.9-4.6
			c-0.2-1.5-0.1-3.1-0.1-4.7c0-2.5,0-5-0.1-7.5c-0.1-3.1-1.7-5.1-4.8-5.8c-2.7-0.6-5.4-0.7-8.1-0.1c-3.3,0.6-5.6,2.9-6.2,6.1
			c1.6,0.3,3.2,0.6,4.8,0.8c0.2,0,0.6-0.2,0.8-0.4c1.3-2.2,4.3-3.1,6.5-1.8c1.1,0.6,1.2,1.7,1.2,2.8
			C254.1,333.8,253.2,333.5,252.6,333.8z M254.1,340.6c-0.3,2.5-3.4,4.3-5.8,3.5c-1.3-0.4-2.1-1.5-2.1-2.8c0-1.2,0.7-2.2,2-2.6
			c1.9-0.6,3.9-1,5.9-1.5C254.1,338.4,254.2,339.6,254.1,340.6z M283.6,347.9v-5.2h-12.1c0.4-0.4,0.6-0.7,0.9-1
			c3.4-3.9,6.7-7.7,10.1-11.6c0.2-0.2,0.5-0.6,0.5-0.9c0.1-1.3,0-2.5,0-3.8h-18.6v4.8h10.4c-0.1,0.1-0.1,0.2-0.2,0.3
			c-3.6,4.1-7.1,8.1-10.7,12.2c-0.2,0.2-0.5,0.5-0.5,0.8c0,1.5,0,2.9,0,4.4H283.6z M166,346.9c0-2.5,0-5,0-7.5
			c0-0.4,0.1-0.9,0.3-1.1c1.6-1.6,3.3-3.1,4.9-4.6c0,0,0.2,0.3,0.3,0.5c2.4,4.1,4.9,8.2,7.3,12.4c0.6,1.1,1.3,1.5,2.6,1.4
			c2.1-0.1,4.2,0,6.4,0c-4.2-6.4-8.3-12.7-12.4-19c3.9-4,7.7-8,11.7-12.1c-2.9,0-5.5,0-8.2,0c-0.3,0-0.6,0.3-0.8,0.6
			c-3.4,3.7-6.8,7.4-10.2,11.1c-0.6,0.7-1.2,1.3-2,2.2V317h-6.2v31h6.2C166,347.6,166,347.2,166,346.9z M221.1,338.9
			c0-1.8,0-3.7,0.2-5.5c0.3-2.5,2.4-4.1,5-3.9c2,0.1,3.1,1.6,3.3,4.2c0,0.3,0,0.6,0,0.8c0,4.1,0,8.2,0,12.2c0,0.4,0,0.7,0,1.2h5.9
			c0-5.4,0.1-10.7,0-16.1c-0.1-3-1.3-5.4-4.3-6.4c-3.5-1.1-6.8-0.6-9.5,2c-0.3,0.3-0.6,0.6-0.9,1c-0.1,0-0.1-0.1-0.2-0.1v-3h-5.5
			v22.5h5.9C221.1,344.9,221.1,341.9,221.1,338.9z"/>
	</g>
</g>
<g id="XMLID_3_">
	<g id="XMLID_306_">
		<path id="XMLID_307_" d="M296.1,260.2h-1.8v3h1.8V260.2z M295.9,273.4c-2.7,4.1-5.3,8.1-7.9,12.2c-0.1,0.2-0.2,0.5-0.3,0.8
			c3.9,0,7.7,0,11.5,0c0.3,0,0.7-0.3,0.9-0.5c1.1-1,2.1-2,3.4-3.4c-1.3-2.8-2.7-5.8-4.2-8.8C298.7,272.5,296.6,272.3,295.9,273.4z
			 M342.7,198.5c0-1.6-0.4-2-2-2c-28.6,0-57.3,0-85.9,0c-1.8,0-2.2,0.3-2.2,2.2c0,28.6,0,57.2,0,85.8c0,1.5,0.4,1.9,1.9,1.9
			c8.4,0,16.8,0,25.2,0.1c1.1,0,1.6-0.3,2.1-1.2c2.9-4.8,6.1-9.3,10.2-13.1c1.1-1,1.1-3.3-0.1-4.2c-1.2-1-1.2-1.9-0.1-3
			c0.3-0.3,0.8-0.6,0.8-1c0.1-1.8,0-3.6,0-5.6h-3.5c-0.1-1.5,0.7-2.4,2-2.4c1.3,0,2.6,0,4,0c0-0.7,0-1.2,0-1.7
			c0-0.8,0.3-1.2,1.2-1.2c0.8,0,1.6,0,2.4,0c0.8,0,1.2,0.4,1.2,1.2c0,0.5,0,1.1,0,1.6c0.2,0.1,0.3,0.1,0.4,0.1c1.2,0,2.4,0,3.6,0
			c1.3,0,2.1,1,2,2.5h-3.5c0,1.5,0.1,2.9,0,4.2c-0.1,1.1,0.2,1.9,1.1,2.6c0.9,0.7,0.8,1.7-0.1,2.4c-1,0.8-1.5,2.7-0.9,3.7
			c1.5,2.6,3.1,5.2,4.9,8c0.1-1.1,0.1-1.8,0.2-2.6c0.1-1.2,1.2-2,2.3-2c1.7,0,3.4,0.1,5.1,0.1c0.9,0,1.4,0.3,1.8,1.1
			c0.6,1.2,1,2.7,2.4,3.4c2.5,1.4,4.2,3.4,5,6.1c0.2,0.7,0.6,0.9,1.3,0.9c5,0,10,0,14.9,0c1.7,0,2.1-0.4,2.1-2.1
			C342.7,255.7,342.7,227.1,342.7,198.5z M337.8,245.5c0,0.7-0.2,1-0.9,0.9c-2,0-4.1,0-6.1,0c-0.7,0-0.9-0.3-0.9-0.9
			c0-2,0-4.1,0-6.1c0-0.7,0.3-0.9,1-0.9c1,0,2,0,3,0s2,0,3,0c0.7,0,1,0.2,1,1C337.8,241.5,337.8,243.5,337.8,245.5z M337.8,236
			c0,0.7-0.3,0.9-0.9,0.9c-1,0-2,0-3,0c-1,0-2,0-3,0c-0.8,0-1-0.3-1-1.1c0-2,0-3.9,0-5.9c0-0.7,0.3-1,1-1c2,0,4,0,6,0
			c0.7,0,1,0.3,1,1C337.8,232,337.8,234,337.8,236z M321.3,200.2c2.1,0,4.1,0,6.2,0c0.6,0,0.9,0.3,0.8,0.9c0,1,0,2.1,0,3.1
			c0,1,0.1,2.1,0,3.1c0,0.3-0.5,0.8-0.8,0.8c-2.1,0.1-4.2,0.1-6.3,0c-0.3,0-0.8-0.5-0.8-0.8c-0.1-2.1,0-4.1,0-6.2
			C320.4,200.5,320.7,200.2,321.3,200.2z M321.2,209.7c0.2-0.2,0.6-0.2,1-0.2c-0.1,0.4,0,0.8-0.2,1c-1.9,2-3.9,4-5.9,6
			c-1.9,1.8-3.9,3.6-5.9,5.4c0.1,0.1,0.2,0.2,0.2,0.3c-0.3-0.2-0.6-0.5-1-0.8C313.3,217.5,317.2,213.6,321.2,209.7z M302.3,200.2
			c2,0,3.9,0,5.9,0c0.7,0,1.1,0.3,1,1.1c0,1,0,1.9,0,2.9c0,1,0,2,0,3c0,0.7-0.2,1-0.9,1c-2,0-4,0-6,0c-0.7,0-1-0.3-1-1c0-2,0-4,0-6
			C301.3,200.4,301.6,200.2,302.3,200.2z M304.7,210.4c0-0.5-0.1-1.1,0.6-1c0.2,0,0.5,0.6,0.5,1c0,2.9,0,5.7,0,8.6
			c0,0.2,0,0.5-0.1,0.7c-0.8,0-1.2-0.2-1.1-1.1C304.8,215.9,304.7,213.1,304.7,210.4z M284.7,222.7c-0.3,0.2-0.6,0.4-0.9,0.6
			c-0.3-0.2-0.5-0.5-0.7-0.7c-3.9-4-7.8-7.9-11.8-11.9c-0.1-0.1-0.3-0.2-0.3-0.4c0-0.3-0.1-0.7,0-0.9c0.1-0.1,0.6-0.1,0.8,0
			c0.6,0.5,1,1,1.6,1.5c3.7,3.7,7.3,7.4,11,11.2C284.4,222.3,284.5,222.5,284.7,222.7z M267.7,200.2c2,0,4.1,0,6.1,0
			c0.6,0,0.9,0.3,0.9,1c0,1,0,2,0,3s0,2,0,3c0,0.6-0.2,1-0.9,1c-2.1,0-4.1,0-6.2,0c-0.6,0-0.9-0.3-0.9-0.9c0-2,0-4.1,0-6.1
			C266.8,200.5,267.1,200.2,267.7,200.2z M267.2,231.9c3,0,6.1,0,9.1,0c0.2,0,0.5,0,0.7,0.1c0,0.8-0.3,1.1-1.1,1.1
			c-2.9,0-5.8,0-8.7,0c-0.4,0-0.7-0.4-1.1-0.6C266.5,232.3,266.8,231.9,267.2,231.9z M276.3,250.2c0.9-0.1,1.3,0.3,1.5,1.2h-9.1
			c-0.5,0-1,0.1-1.5,0c-0.4-0.1-1-0.3-1-0.6c-0.1-0.7,0.5-0.6,1-0.6c2.1,0,4.2,0,6.3,0C274.5,250.2,275.4,250.3,276.3,250.2z
			 M258.2,200.2c2,0,4.1,0,6.1,0c0.6,0,0.9,0.3,0.9,1c0,1,0,2.1,0,3.1c0,1,0,2,0,3c0,0.6-0.3,0.9-0.9,0.9c-2.1,0-4.1,0-6.2,0
			c-0.6,0-0.9-0.3-0.9-0.9c0-2,0-4.1,0-6.1C257.3,200.5,257.6,200.2,258.2,200.2z M258.3,219.2c1,0,2.1,0,3.1,0c1,0,2,0,3,0
			c0.6,0,0.9,0.2,0.9,0.9c0,2.1,0,4.1,0,6.2c0,0.6-0.3,0.9-0.9,0.9c-2,0-4.1,0-6.1,0c-0.7,0-0.9-0.3-0.9-0.9c0-2,0-4.1,0-6.1
			C257.3,219.4,257.6,219.2,258.3,219.2z M265.2,277.7c0,1,0,2,0,3c0,0.7-0.3,0.9-0.9,0.9c-2,0-4,0-6,0c-0.7,0-1-0.3-1-1
			c0-2,0-4,0-6c0-0.7,0.3-1,1-1c2,0,3.9,0,5.9,0c0.7,0,1.1,0.2,1,1C265.2,275.7,265.2,276.7,265.2,277.7z M265.2,250.5c0,1,0,2,0,3
			c0,0.6-0.2,0.9-0.8,0.9c-2.1,0-4.1,0-6.2,0c-0.6,0-0.9-0.3-0.9-0.9c0-2.1,0-4.1,0-6.2c0-0.6,0.3-0.8,0.9-0.8c2,0,4.1,0,6.1,0
			c0.7,0,0.9,0.3,0.9,0.9C265.2,248.4,265.2,249.5,265.2,250.5z M258.2,264.3c2.1,0,4.1,0,6.2,0c0.6,0,0.9,0.2,0.9,0.9
			c0,1.1,0,2.1,0,3.2c0,1,0,1.9,0,2.9c0,0.7-0.2,1-0.9,1c-2,0-4.1,0-6.1,0c-0.7,0-0.9-0.3-0.9-0.9c0-2,0-4.1,0-6.1
			C257.3,264.5,257.5,264.2,258.2,264.3z M265.2,232.7c0,1,0,2,0,3c0,0.7-0.3,0.9-0.9,0.9c-2,0-4.1,0-6.1,0c-0.7,0-0.9-0.3-0.9-1
			c0-2,0-4,0-6c0-0.7,0.3-1,1-1c2,0,3.9,0,5.9,0c0.7,0,1.1,0.2,1,1C265.2,230.7,265.2,231.7,265.2,232.7z M282.5,258.4
			c-5.1,5-10.2,10.1-15.3,15.1c-0.3,0.2-0.9,0.5-1.1,0.4c-0.6-0.5-0.2-0.9,0.2-1.3c0.1-0.1,0.2-0.2,0.4-0.4
			c3.8-3.8,7.6-7.6,11.4-11.4c1.3-1.3,2.6-2.6,3.9-3.9c0.4,0.3,0.7,0.6,1,0.9C282.8,258,282.6,258.2,282.5,258.4z M302,250.3
			c0,0.9-0.9,1.3-1.7,1.3c-2.8,0-5.6,0-8.4,0c-1.2,0-1.8-0.7-1.8-1.9c0-2.1,0-4.2,0-6.3h3.7v5.2h4.5v-5.2h3.7
			C302.1,245.7,302.1,248,302,250.3z M292.4,239.7c2.4,0,4.8,0,7.3,0c2.1,0,2.7,0.8,2.3,2.9h-11.7
			C289.7,240.7,290.4,239.7,292.4,239.7z M305.9,251.5v-15h-4.1v-5h8.2v20H305.9z M304,261.6c-0.4-1.5-0.4-1.6,0.9-2.1
			c10.6-4.1,15.6-16,11.1-26.7c-0.5,0.9-1.1,1.7-1.4,2.5c-0.4,1-1,1.3-2,1.1c-0.5-0.1-1.1,0-1.7,0v-4.9h4.6
			c-0.8-1.2-1.4-2.3-2.2-3.2c-5.4-6.4-12.2-8.9-20.3-6.9c-8.2,2-13.2,7.5-14.9,15.7c-1.9,9,3.2,18.3,11.7,21.9
			c1.4,0.6,1.4,0.6,1.2,2.3c-6.8-1.7-16.1-9.8-15-22.8c0.9-10.5,10.3-19.3,21.1-19.5c11.4-0.2,21,8.1,22.2,19.4
			C320.6,250.6,312.2,259.4,304,261.6z M286.4,231.6v20h-4.1v-20H286.4z M327.8,273.3c-0.8-0.7-1.4-1.4-2.1-2.1
			c-4.1-4.2-8.3-8.3-12.4-12.5c-0.2-0.2-0.5-0.5-0.7-0.8c0.3-0.2,0.5-0.4,0.7-0.7c0.2,0.2,0.4,0.3,0.6,0.5
			c4.8,4.8,9.7,9.7,14.5,14.5c0.1,0.1,0.3,0.2,0.3,0.3c0.1,0.3,0,0.6,0.1,0.9C328.3,273.4,327.9,273.5,327.8,273.3z M328.1,242.7
			c-2.6,0-5.1,0-7.8,0v-1c0.1,0,0.2-0.1,0.4-0.1c2.5,0,5,0,7.4,0c0.3,0,0.5,0.4,0.8,0.6C328.6,242.4,328.4,242.7,328.1,242.7z
			 M337.8,277.8c0,1,0,2.1,0,3.1c0,0.6-0.2,0.9-0.9,0.9c-2.1,0-4.1,0-6.2,0c-0.6,0-0.9-0.3-0.9-0.9c0-2.1,0-4.1,0-6.2
			c0-0.6,0.3-0.8,0.9-0.8c2,0,4.1,0,6.1,0c0.6,0,1,0.2,0.9,0.9C337.8,275.8,337.8,276.8,337.8,277.8z M336.8,256c-1,0-1.9,0-2.9,0
			c-1,0-1.9,0-2.9,0c-0.8,0-1.1-0.3-1.1-1.1c0-2,0-3.9,0-5.9c0-0.7,0.3-1,1-1c2,0,4,0,6,0c0.7,0,1,0.3,1,1c0,2,0,3.9,0,5.9
			C337.9,255.7,337.5,256,336.8,256z M337.8,207.2c0,0.7-0.3,1-1,1c-2,0-4,0-6,0c-0.7,0-1-0.3-1-1c0-1,0-2,0-3c0-1,0-1.9,0-2.9
			c0-0.7,0.2-1.1,1-1.1c2,0,3.9,0,5.9,0c0.7,0,1.1,0.3,1.1,1C337.8,203.2,337.8,205.2,337.8,207.2z M299.6,260.3h-2v2.9h2V260.3z"/>
	</g>
</g>
<g id="XMLID_39_">
</g>
<g id="XMLID_40_">
</g>
<g id="XMLID_41_">
</g>
<g id="XMLID_42_">
</g>
<g id="XMLID_43_">
</g>
<g id="XMLID_44_">
</g>
</svg>
