<?xml version="1.0" encoding="UTF-8" standalone="no"?>
<svg width="91px" height="91px" viewBox="0 0 91 91" version="1.1" xmlns="http://www.w3.org/2000/svg" xmlns:xlink="http://www.w3.org/1999/xlink">
    <!-- Generator: Sketch 3.7.2 (28276) - http://www.bohemiancoding.com/sketch -->
    <title>XMLID_3_</title>
    <desc>Created with Sketch.</desc>
    <defs></defs>
    <g id="Page-1" stroke="none" stroke-width="1" fill="none" fill-rule="evenodd">
        <g id="XMLID_3_" fill="#4E87FB">
            <g id="XMLID_314_">
                <path d="M90.7,2.5 C90.7,0.9 90.3,0.5 88.7,0.5 L2.8,0.5 C1,0.5 0.6,0.8 0.6,2.7 L0.6,88.5 C0.6,90 1,90.4 2.5,90.4 C10.9,90.4 19.3,90.4 27.7,90.5 C28.8,90.5 29.3,90.2 29.8,89.3 C32.7,84.5 35.9,80 40,76.2 C41.1,75.2 41.1,72.9 39.9,72 C38.7,71 38.7,70.1 39.8,69 C40.1,68.7 40.6,68.4 40.6,68 C40.7,66.2 40.6,64.4 40.6,62.4 L37.1,62.4 C37,60.9 37.8,60 39.1,60 L43.1,60 L43.1,58.3 C43.1,57.5 43.4,57.1 44.3,57.1 L46.7,57.1 C47.5,57.1 47.9,57.5 47.9,58.3 L47.9,59.9 C48.1,60 48.2,60 48.3,60 L51.9,60 C53.2,60 54,61 53.9,62.5 L50.4,62.5 C50.4,64 50.5,65.4 50.4,66.7 C50.3,67.8 50.6,68.6 51.5,69.3 C52.4,70 52.3,71 51.4,71.7 C50.4,72.5 49.9,74.4 50.5,75.4 C52,78 53.6,80.6 55.4,83.4 C55.5,82.3 55.5,81.6 55.6,80.8 C55.7,79.6 56.8,78.8 57.9,78.8 C59.6,78.8 61.3,78.9 63,78.9 C63.9,78.9 64.4,79.2 64.8,80 C65.4,81.2 65.8,82.7 67.2,83.4 C69.7,84.8 71.4,86.8 72.2,89.5 C72.4,90.2 72.8,90.4 73.5,90.4 L88.4,90.4 C90.1,90.4 90.5,90 90.5,88.3 C90.7,59.7 90.7,31.1 90.7,2.5 L90.7,2.5 Z M85.8,49.5 C85.8,50.2 85.6,50.5 84.9,50.4 L78.8,50.4 C78.1,50.4 77.9,50.1 77.9,49.5 L77.9,43.4 C77.9,42.7 78.2,42.5 78.9,42.5 L81.9,42.5 L84.9,42.5 C85.6,42.5 85.9,42.7 85.9,43.5 C85.8,45.5 85.8,47.5 85.8,49.5 L85.8,49.5 Z M85.8,40 C85.8,40.7 85.5,40.9 84.9,40.9 L81.9,40.9 L78.9,40.9 C78.1,40.9 77.9,40.6 77.9,39.8 L77.9,33.9 C77.9,33.2 78.2,32.9 78.9,32.9 L84.9,32.9 C85.6,32.9 85.9,33.2 85.9,33.9 C85.8,36 85.8,38 85.8,40 L85.8,40 Z M69.3,4.2 L75.5,4.2 C76.1,4.2 76.4,4.5 76.3,5.1 L76.3,8.2 C76.3,9.2 76.4,10.3 76.3,11.3 C76.3,11.6 75.8,12.1 75.5,12.1 C73.4,12.2 71.3,12.2 69.2,12.1 C68.9,12.1 68.4,11.6 68.4,11.3 C68.3,9.2 68.4,7.2 68.4,5.1 C68.4,4.5 68.7,4.2 69.3,4.2 L69.3,4.2 Z M69.2,13.7 C69.4,13.5 69.8,13.5 70.2,13.5 C70.1,13.9 70.2,14.3 70,14.5 C68.1,16.5 66.1,18.5 64.1,20.5 C62.2,22.3 60.2,24.1 58.2,25.9 C58.3,26 58.4,26.1 58.4,26.2 C58.1,26 57.8,25.7 57.4,25.4 C61.3,21.5 65.2,17.6 69.2,13.7 L69.2,13.7 Z M50.3,4.2 L56.2,4.2 C56.9,4.2 57.3,4.5 57.2,5.3 L57.2,8.2 L57.2,11.2 C57.2,11.9 57,12.2 56.3,12.2 L50.3,12.2 C49.6,12.2 49.3,11.9 49.3,11.2 L49.3,5.2 C49.3,4.4 49.6,4.2 50.3,4.2 L50.3,4.2 Z M52.7,14.4 C52.7,13.9 52.6,13.3 53.3,13.4 C53.5,13.4 53.8,14 53.8,14.4 L53.8,23 C53.8,23.2 53.8,23.5 53.7,23.7 C52.9,23.7 52.5,23.5 52.6,22.6 C52.8,19.9 52.7,17.1 52.7,14.4 L52.7,14.4 Z M32.7,26.7 C32.4,26.9 32.1,27.1 31.8,27.3 C31.5,27.1 31.3,26.8 31.1,26.6 C27.2,22.6 23.3,18.7 19.3,14.7 C19.2,14.6 19,14.5 19,14.3 C19,14 18.9,13.6 19,13.4 C19.1,13.3 19.6,13.3 19.8,13.4 C20.4,13.9 20.8,14.4 21.4,14.9 C25.1,18.6 28.7,22.3 32.4,26.1 C32.4,26.3 32.5,26.5 32.7,26.7 L32.7,26.7 Z M15.7,4.2 L21.8,4.2 C22.4,4.2 22.7,4.5 22.7,5.2 L22.7,8.2 L22.7,11.2 C22.7,11.8 22.5,12.2 21.8,12.2 L15.6,12.2 C15,12.2 14.7,11.9 14.7,11.3 L14.7,5.2 C14.8,4.5 15.1,4.2 15.7,4.2 L15.7,4.2 Z M15.2,35.9 L24.3,35.9 C24.5,35.9 24.8,35.9 25,36 C25,36.8 24.7,37.1 23.9,37.1 L15.2,37.1 C14.8,37.1 14.5,36.7 14.1,36.5 C14.5,36.3 14.8,35.9 15.2,35.9 L15.2,35.9 Z M24.3,54.2 C25.2,54.1 25.6,54.5 25.8,55.4 L16.7,55.4 C16.2,55.4 15.7,55.5 15.2,55.4 C14.8,55.3 14.2,55.1 14.2,54.8 C14.1,54.1 14.7,54.2 15.2,54.2 L21.5,54.2 C22.5,54.2 23.4,54.3 24.3,54.2 L24.3,54.2 Z M6.2,4.2 L12.3,4.2 C12.9,4.2 13.2,4.5 13.2,5.2 L13.2,8.3 L13.2,11.3 C13.2,11.9 12.9,12.2 12.3,12.2 L6.1,12.2 C5.5,12.2 5.2,11.9 5.2,11.3 L5.2,5.2 C5.3,4.5 5.6,4.2 6.2,4.2 L6.2,4.2 Z M6.3,23.2 L9.4,23.2 L12.4,23.2 C13,23.2 13.3,23.4 13.3,24.1 L13.3,30.3 C13.3,30.9 13,31.2 12.4,31.2 L6.3,31.2 C5.6,31.2 5.4,30.9 5.4,30.3 L5.4,24.2 C5.3,23.4 5.6,23.2 6.3,23.2 L6.3,23.2 Z M13.2,81.7 L13.2,84.7 C13.2,85.4 12.9,85.6 12.3,85.6 L6.3,85.6 C5.6,85.6 5.3,85.3 5.3,84.6 L5.3,78.6 C5.3,77.9 5.6,77.6 6.3,77.6 L12.2,77.6 C12.9,77.6 13.3,77.8 13.2,78.6 L13.2,81.7 L13.2,81.7 Z M13.2,54.5 L13.2,57.5 C13.2,58.1 13,58.4 12.4,58.4 L6.2,58.4 C5.6,58.4 5.3,58.1 5.3,57.5 L5.3,51.3 C5.3,50.7 5.6,50.5 6.2,50.5 L12.3,50.5 C13,50.5 13.2,50.8 13.2,51.4 L13.2,54.5 L13.2,54.5 Z M6.2,68.3 L12.4,68.3 C13,68.3 13.3,68.5 13.3,69.2 L13.3,72.4 L13.3,75.3 C13.3,76 13.1,76.3 12.4,76.3 L6.3,76.3 C5.6,76.3 5.4,76 5.4,75.4 L5.4,69.3 C5.3,68.5 5.5,68.2 6.2,68.3 L6.2,68.3 Z M13.2,36.7 L13.2,39.7 C13.2,40.4 12.9,40.6 12.3,40.6 L6.2,40.6 C5.5,40.6 5.3,40.3 5.3,39.6 L5.3,33.6 C5.3,32.9 5.6,32.6 6.3,32.6 L12.2,32.6 C12.9,32.6 13.3,32.8 13.2,33.6 L13.2,36.7 L13.2,36.7 Z M30.5,62.4 C25.4,67.4 20.3,72.5 15.2,77.5 C14.9,77.7 14.3,78 14.1,77.9 C13.5,77.4 13.9,77 14.3,76.6 C14.4,76.5 14.5,76.4 14.7,76.2 L26.1,64.8 C27.4,63.5 28.7,62.2 30,60.9 C30.4,61.2 30.7,61.5 31,61.8 C30.8,62 30.6,62.2 30.5,62.4 L30.5,62.4 Z M50,54.3 C50,55.2 49.1,55.6 48.3,55.6 L39.9,55.6 C38.7,55.6 38.1,54.9 38.1,53.7 L38.1,47.4 L41.8,47.4 L41.8,52.6 L46.3,52.6 L46.3,47.4 L50,47.4 C50.1,49.7 50.1,52 50,54.3 L50,54.3 Z M40.4,43.7 L47.7,43.7 C49.8,43.7 50.4,44.5 50,46.6 L38.3,46.6 C37.7,44.7 38.4,43.7 40.4,43.7 L40.4,43.7 Z M53.9,55.5 L53.9,40.5 L49.8,40.5 L49.8,35.5 L58,35.5 L58,55.5 L53.9,55.5 L53.9,55.5 Z M52,65.6 C51.6,64.1 51.6,64 52.9,63.5 C63.5,59.4 68.5,47.5 64,36.8 C63.5,37.7 62.9,38.5 62.6,39.3 C62.2,40.3 61.6,40.6 60.6,40.4 C60.1,40.3 59.5,40.4 58.9,40.4 L58.9,35.5 L63.5,35.5 C62.7,34.3 62.1,33.2 61.3,32.3 C55.9,25.9 49.1,23.4 41,25.4 C32.8,27.4 27.8,32.9 26.1,41.1 C24.2,50.1 29.3,59.4 37.8,63 C39.2,63.6 39.2,63.6 39,65.3 C32.2,63.6 22.9,55.5 24,42.5 C24.9,32 34.3,23.2 45.1,23 C56.5,22.8 66.1,31.1 67.3,42.4 C68.6,54.6 60.2,63.4 52,65.6 L52,65.6 Z M34.4,35.6 L34.4,55.6 L30.3,55.6 L30.3,35.6 L34.4,35.6 L34.4,35.6 Z M75.8,77.3 C75,76.6 74.4,75.9 73.7,75.2 C69.6,71 65.4,66.9 61.3,62.7 C61.1,62.5 60.8,62.2 60.6,61.9 C60.9,61.7 61.1,61.5 61.3,61.2 C61.5,61.4 61.7,61.5 61.9,61.7 L76.4,76.2 C76.5,76.3 76.7,76.4 76.7,76.5 C76.8,76.8 76.7,77.1 76.8,77.4 C76.3,77.4 75.9,77.5 75.8,77.3 L75.8,77.3 Z M76.1,46.7 L68.3,46.7 L68.3,45.7 C68.4,45.7 68.5,45.6 68.7,45.6 L76.1,45.6 C76.4,45.6 76.6,46 76.9,46.2 C76.6,46.4 76.4,46.7 76.1,46.7 L76.1,46.7 Z M85.8,81.8 L85.8,84.9 C85.8,85.5 85.6,85.8 84.9,85.8 L78.7,85.8 C78.1,85.8 77.8,85.5 77.8,84.9 L77.8,78.7 C77.8,78.1 78.1,77.9 78.7,77.9 L84.8,77.9 C85.4,77.9 85.8,78.1 85.7,78.8 C85.8,79.8 85.8,80.8 85.8,81.8 L85.8,81.8 Z M84.8,60 L81.9,60 L79,60 C78.2,60 77.9,59.7 77.9,58.9 L77.9,53 C77.9,52.3 78.2,52 78.9,52 L84.9,52 C85.6,52 85.9,52.3 85.9,53 L85.9,58.9 C85.9,59.7 85.5,60 84.8,60 L84.8,60 Z M85.8,11.2 C85.8,11.9 85.5,12.2 84.8,12.2 L78.8,12.2 C78.1,12.2 77.8,11.9 77.8,11.2 L77.8,8.2 L77.8,5.3 C77.8,4.6 78,4.2 78.8,4.2 L84.7,4.2 C85.4,4.2 85.8,4.5 85.8,5.2 L85.8,11.2 L85.8,11.2 Z M44.1,64.2 L42.3,64.2 L42.3,67.2 L44.1,67.2 L44.1,64.2 L44.1,64.2 Z M43.9,77.4 C41.2,81.5 38.6,85.5 36,89.6 C35.9,89.8 35.8,90.1 35.7,90.4 L47.2,90.4 C47.5,90.4 47.9,90.1 48.1,89.9 C49.2,88.9 50.2,87.9 51.5,86.5 C50.2,83.7 48.8,80.7 47.3,77.7 C46.7,76.5 44.6,76.3 43.9,77.4 L43.9,77.4 Z M47.6,64.3 L45.6,64.3 L45.6,67.2 L47.6,67.2 L47.6,64.3 L47.6,64.3 Z" id="XMLID_315_"></path>
            </g>
        </g>
    </g>
</svg>