<?xml version="1.0" encoding="utf-8"?>
<!-- Generator: Adobe Illustrator 19.0.0, SVG Export Plug-In . SVG Version: 6.00 Build 0)  -->
<svg version="1.1" id="レイヤー_1" xmlns="http://www.w3.org/2000/svg" xmlns:xlink="http://www.w3.org/1999/xlink" x="0px"
	 y="0px" viewBox="0 0 279 163" style="enable-background:new 0 0 279 163;" xml:space="preserve">
<g id="XMLID_36_">
	<g id="XMLID_252_">
		<path id="XMLID_253_" d="M157.5,151.5c1.5,0.1,3,0,4.5,0c0.6,0,0.8-0.2,0.9-0.7c0.3-1.3,0.7-2.6,1-3.9c0.8-3.2,1.7-6.4,2.6-9.8
			c0.3,1,0.5,1.8,0.7,2.6c1,3.7,2,7.4,3,11.1c0.1,0.4,0.2,0.9,0.8,0.8c1.7,0,3.4,0,5.1,0c2.4-7.5,4.8-15,7.2-22.6c-1.7,0-3.4,0-5,0
			c-0.8,0-1,0.3-1.2,0.9c-0.7,2.5-1.4,4.9-2.1,7.4c-0.6,2.1-1.2,4.1-1.9,6.5c-1.3-5.1-2.5-9.9-3.8-14.8c-1.6,0-3.2,0-4.8,0
			c-0.7,0-1,0.2-1.2,0.9c-1.2,4.5-2.4,9-3.6,13.9c-1.5-5.1-2.8-9.9-4.2-14.7h-5.8c2.3,7.4,4.6,14.7,7,22
			C156.8,151.2,157.3,151.5,157.5,151.5z M228.8,120.5h-6.1v31h6.1V120.5z M197.4,137.4c-0.4,0.2-0.8,0.2-1.2,0.3
			c-2.3,0.6-4.7,1-7,1.8c-3,1-4.3,3.4-4.1,6.6c0.2,2.7,2.1,5,4.9,5.7c3.1,0.7,6,0.2,8.5-1.8c0.3-0.2,0.6-0.5,1-0.8
			c0.2,0.7,0.4,1.3,0.6,1.9c0.1,0.2,0.4,0.5,0.6,0.5c1.8,0,3.5,0,5.4,0c-1.3-2.5-1.4-5.1-1.4-7.7c0-3,0.1-5.9,0-8.9
			c-0.1-3.4-1.7-5.3-5-6c-2.6-0.6-5.2-0.6-7.8-0.1c-3.3,0.6-5.9,3.2-6.2,6.2c1.7,0.3,3.4,0.6,5.2,0.9c1.2-3.1,3.5-3.2,6.5-2.5
			c1.1,0.3,1.6,1.4,1.6,2.9C199,137.4,198,137.1,197.4,137.4z M199,143.4c-0.1,2.8-2.5,4.8-5.3,4.4c-1.4-0.2-2.6-1.4-2.8-2.8
			c-0.1-1.2,0.7-2.3,2.1-2.7c1.9-0.6,3.9-1,5.9-1.5C199,141.8,199,142.6,199,143.4z M247.8,151.8c5.4-1.1,9-5.7,9-11.6
			c0-3.1-0.9-5.7-2.7-7.8c-3.2-3.7-8.4-5-13.2-3.3c-4.4,1.6-7.2,5.6-7.4,10.6C233.3,148.1,239.7,153.5,247.8,151.8z M240.2,136.9
			c0.8-2.3,3-3.7,5.3-3.5c2.5,0.2,4.4,2,4.9,4.6c0.2,0.8,0.2,1.6,0.3,2.7c-0.2,0.9-0.3,2.1-0.8,3.2c-0.8,2.1-2.5,3.3-4.8,3.3
			c-2.2,0-4.1-1.2-4.9-3.3C239.4,141.6,239.4,139.2,240.2,136.9z M140.3,137c-1,0.3-2.1,0.6-3.1,0.8c-2.2,0.6-4.4,0.9-6.5,1.7
			c-4.1,1.6-5.1,7.1-2.1,10.3c2.1,2.2,4.9,2.4,7.7,2c2-0.3,3.6-1.4,5.1-2.7c0.2,0.7,0.3,1.3,0.6,1.8c0.1,0.3,0.4,0.6,0.7,0.6
			c1.8,0.1,3.5,0,5.4,0c-1.9-4-1.2-8.1-1.3-12.1c0-1.6,0-3.1-0.1-4.7c-0.2-3.2-1.7-5.2-4.9-5.8c-2.2-0.4-4.5-0.5-6.7-0.4
			c-3.9,0.2-6.5,2.3-7.5,6.3c1.5,0.3,2.9,0.5,4.3,0.8c0.1,0,0.3,0.1,0.4,0.1c0.3-0.2,0.8-0.3,0.9-0.6c0.6-1.1,1.4-1.9,2.6-2.1
			c0.9-0.1,1.7-0.1,2.6,0c1.8,0.2,2.6,1.3,2.4,3.1C140.9,136.5,140.6,137,140.3,137z M140.8,144.5c-0.4,2.4-3.7,4.1-5.9,3.1
			c-1.2-0.5-1.9-1.6-1.9-2.8c0-1.2,0.6-2.1,2-2.5c1.9-0.6,3.9-1,5.9-1.5C140.8,142.1,141,143.3,140.8,144.5z M42.8,137.3
			c-0.4,0.2-0.9,0.2-1.3,0.3c-2.3,0.6-4.7,1-7,1.8c-2.9,1-4.4,3.5-4.2,6.4c0.2,2.9,2.1,5.2,5,5.9c3.2,0.8,6.2,0.2,8.7-2
			c0.2-0.2,0.5-0.4,0.8-0.6c0.2,0.7,0.3,1.2,0.6,1.7c0.1,0.3,0.5,0.6,0.8,0.6c1.7,0.1,3.4,0,5.4,0c-1.5-2.6-1.4-5.2-1.4-7.8
			c0-3.1,0-6.2-0.1-9.3c-0.2-3-1.7-4.9-4.7-5.4c-2.3-0.4-4.6-0.6-6.9-0.4c-4.2,0.4-6.5,2.5-7.4,6.3c1.6,0.3,3.2,0.6,4.8,0.8
			c0.2,0,0.6-0.2,0.8-0.4c1.3-2.2,4.4-3.1,6.6-1.8c1.1,0.6,1.2,1.7,1.2,2.8C44.3,137.3,43.4,137.1,42.8,137.3z M44.4,140.8
			c-0.1,1.5-0.1,2.8-0.4,4.1c-0.6,2.3-3.8,3.7-5.9,2.7c-1.1-0.5-1.9-1.6-1.9-2.8c0.1-1.3,0.8-2.1,1.9-2.4
			C40.2,141.8,42.2,141.3,44.4,140.8z M267.3,158.3c-27.4,0-54.8,0-82.3,0c-57.7,0-115.4,0-173,0c-0.4,0-0.8-0.1-1.1,0.1
			c-0.3,0.2-0.7,0.6-0.7,0.9c0,0.3,0.4,0.7,0.7,0.8c0.3,0.1,0.7,0,1.1,0c42.5,0,85.1,0,127.6,0c42.6,0,85.1,0,127.7,0
			c0.7,0,1.7,0.3,1.7-0.9C269,158.1,268,158.3,267.3,158.3z M4.1,155c-2.2,0-4.1,1.9-4.1,4.1c0,2.2,1.8,4,4.1,4c2.2,0,4-1.8,4-4
			C8.1,156.8,6.3,155,4.1,155z M4,161.4c-1.3,0-2.4-1-2.4-2.2c0-1.2,1.1-2.2,2.4-2.2c1.3,0,2.4,1,2.4,2.2
			C6.4,160.4,5.4,161.4,4,161.4z M278.7,120.5h-24.6v5.2h9.3v25.8h6.2v-25.8h9.2V120.5z M275,155c-2.2,0-4,1.8-4,4c0,2.2,1.7,4,4,4
			c2.2,0,4-1.7,4.1-3.9C279.1,156.9,277.2,155,275,155z M275,161.4c-1.3,0-2.4-1-2.3-2.2c0-1.3,1-2.2,2.4-2.2c1.3,0,2.4,1,2.4,2.2
			C277.4,160.4,276.3,161.4,275,161.4z M93.5,137.4c-0.4,0.2-0.8,0.2-1.2,0.3c-2.4,0.6-4.8,1-7.1,1.8c-2.9,1-4.2,3.3-4.1,6.5
			c0.1,2.7,1.9,5.1,4.6,5.7c1.6,0.4,3.3,0.5,4.9,0.1c1.7-0.4,3.3-1.5,5-2.2c0.1,0.3,0.3,0.9,0.5,1.5c0.1,0.2,0.3,0.5,0.5,0.5
			c1.8,0,3.6,0,5.3,0c-0.3-1.6-0.8-3.1-0.9-4.6c-0.2-1.5-0.1-3.1-0.1-4.7c0-2.5,0-5-0.1-7.5c-0.1-3.1-1.7-5.1-4.8-5.8
			c-2.7-0.6-5.4-0.7-8.1-0.1c-3.3,0.6-5.6,2.9-6.2,6.1c1.6,0.3,3.2,0.6,4.8,0.8c0.2,0,0.6-0.2,0.8-0.4c1.3-2.2,4.3-3.1,6.5-1.8
			c1.1,0.6,1.2,1.7,1.2,2.8C95,137.4,94,137.1,93.5,137.4z M95,144.2c-0.3,2.5-3.4,4.3-5.8,3.5c-1.3-0.4-2.1-1.5-2.1-2.8
			c0-1.2,0.7-2.2,2-2.6c1.9-0.6,3.9-1,5.9-1.5C95,142,95.1,143.1,95,144.2z M124.5,151.5v-5.2h-12.1c0.4-0.4,0.6-0.7,0.9-1
			c3.4-3.9,6.7-7.7,10.1-11.6c0.2-0.2,0.5-0.6,0.5-0.9c0.1-1.3,0-2.5,0-3.8h-18.6v4.8h10.4c-0.1,0.1-0.1,0.2-0.2,0.3
			c-3.6,4.1-7.1,8.1-10.7,12.2c-0.2,0.2-0.5,0.5-0.5,0.8c0,1.5,0,2.9,0,4.4H124.5z M6.9,150.5c0-2.5,0-5,0-7.5
			c0-0.4,0.1-0.9,0.3-1.1c1.6-1.6,3.3-3.1,4.9-4.6c0,0,0.2,0.3,0.3,0.5c2.4,4.1,4.9,8.2,7.3,12.4c0.6,1.1,1.3,1.5,2.6,1.4
			c2.1-0.1,4.2,0,6.4,0c-4.2-6.4-8.3-12.7-12.4-19c3.9-4,7.7-8,11.7-12.1c-2.9,0-5.5,0-8.2,0c-0.3,0-0.6,0.3-0.8,0.6
			c-3.4,3.7-6.8,7.4-10.2,11.1c-0.6,0.7-1.2,1.3-2,2.2v-13.8H0.7v31h6.2C6.9,151.1,6.9,150.8,6.9,150.5z M62,142.5
			c0-1.8,0-3.7,0.2-5.5c0.3-2.5,2.4-4.1,5-3.9c2,0.1,3.1,1.6,3.3,4.2c0,0.3,0,0.6,0,0.8c0,4.1,0,8.2,0,12.2c0,0.4,0,0.7,0,1.2h5.9
			c0-5.4,0.1-10.7,0-16.1c-0.1-3-1.3-5.4-4.3-6.4c-3.5-1.1-6.8-0.6-9.5,2c-0.3,0.3-0.6,0.6-0.9,1c-0.1,0-0.1-0.1-0.2-0.1v-3h-5.5
			v22.5H62C62,148.4,62,145.5,62,142.5z"/>
	</g>
</g>
<g id="XMLID_3_">
	<g id="XMLID_381_">
		<path id="XMLID_382_" d="M137,63.8h-1.8v3h1.8V63.8z M136.8,76.9c-2.7,4.1-5.3,8.1-7.9,12.2c-0.1,0.2-0.2,0.5-0.3,0.8
			c3.9,0,7.7,0,11.5,0c0.3,0,0.7-0.3,0.9-0.5c1.1-1,2.1-2,3.4-3.4c-1.3-2.8-2.7-5.8-4.2-8.8C139.6,76.1,137.5,75.9,136.8,76.9z
			 M140.5,63.8h-2v2.9h2V63.8z M183.5,2c0-1.6-0.4-2-2-2c-28.6,0-57.3,0-85.9,0c-1.8,0-2.2,0.3-2.2,2.2c0,28.6,0,57.2,0,85.8
			c0,1.5,0.4,1.9,1.9,1.9c8.4,0,16.8,0,25.2,0.1c1.1,0,1.6-0.3,2.1-1.2c2.9-4.8,6.1-9.3,10.2-13.1c1.1-1,1.1-3.3-0.1-4.2
			c-1.2-1-1.2-1.9-0.1-3c0.3-0.3,0.8-0.6,0.8-1c0.1-1.8,0-3.6,0-5.6h-3.5c-0.1-1.5,0.7-2.4,2-2.4c1.3,0,2.6,0,4,0c0-0.7,0-1.2,0-1.7
			c0-0.8,0.3-1.2,1.2-1.2c0.8,0,1.6,0,2.4,0c0.8,0,1.2,0.4,1.2,1.2c0,0.5,0,1.1,0,1.6c0.2,0.1,0.3,0.1,0.4,0.1c1.2,0,2.4,0,3.6,0
			c1.3,0,2.1,1,2,2.5h-3.5c0,1.5,0.1,2.9,0,4.2c-0.1,1.1,0.2,1.9,1.1,2.6c0.9,0.7,0.8,1.7-0.1,2.4c-1,0.8-1.5,2.7-0.9,3.7
			c1.5,2.6,3.1,5.2,4.9,8c0.1-1.1,0.1-1.8,0.2-2.6c0.1-1.2,1.2-2,2.3-2c1.7,0,3.4,0.1,5.1,0.1c0.9,0,1.4,0.3,1.8,1.1
			c0.6,1.2,1,2.7,2.4,3.4c2.5,1.4,4.2,3.4,5,6.1c0.2,0.7,0.6,0.9,1.3,0.9c5,0,10,0,14.9,0c1.7,0,2.1-0.4,2.1-2.1
			C183.5,59.3,183.5,30.7,183.5,2z M178.7,49.1c0,0.7-0.2,1-0.9,0.9c-2,0-4.1,0-6.1,0c-0.7,0-0.9-0.3-0.9-0.9c0-2,0-4.1,0-6.1
			c0-0.7,0.3-0.9,1-0.9c1,0,2,0,3,0s2,0,3,0c0.7,0,1,0.2,1,1C178.7,45.1,178.7,47.1,178.7,49.1z M178.7,39.6c0,0.7-0.3,0.9-0.9,0.9
			c-1,0-2,0-3,0c-1,0-2,0-3,0c-0.8,0-1-0.3-1-1.1c0-2,0-3.9,0-5.9c0-0.7,0.3-1,1-1c2,0,4,0,6,0c0.7,0,1,0.3,1,1
			C178.7,35.6,178.7,37.6,178.7,39.6z M162.1,3.8c2.1,0,4.1,0,6.2,0c0.6,0,0.9,0.3,0.8,0.9c0,1,0,2.1,0,3.1c0,1,0.1,2.1,0,3.1
			c0,0.3-0.5,0.8-0.8,0.8c-2.1,0.1-4.2,0.1-6.3,0c-0.3,0-0.8-0.5-0.8-0.8c-0.1-2.1,0-4.1,0-6.2C161.3,4.1,161.5,3.8,162.1,3.8z
			 M162,13.3c0.2-0.2,0.6-0.2,1-0.2c-0.1,0.4,0,0.8-0.2,1c-1.9,2-3.9,4-5.9,6c-1.9,1.8-3.9,3.6-5.9,5.4c0.1,0.1,0.2,0.2,0.2,0.3
			c-0.3-0.2-0.6-0.5-1-0.8C154.2,21.1,158.1,17.2,162,13.3z M143.2,3.8c2,0,3.9,0,5.9,0c0.7,0,1.1,0.3,1,1.1c0,1,0,1.9,0,2.9
			c0,1,0,2,0,3c0,0.7-0.2,1-0.9,1c-2,0-4,0-6,0c-0.7,0-1-0.3-1-1c0-2,0-4,0-6C142.2,4,142.5,3.8,143.2,3.8z M145.6,13.9
			c0-0.5-0.1-1.1,0.6-1c0.2,0,0.5,0.6,0.5,1c0,2.9,0,5.7,0,8.6c0,0.2,0,0.5-0.1,0.7c-0.8,0-1.2-0.2-1.1-1.1
			C145.6,19.4,145.6,16.7,145.6,13.9z M125.6,26.2c-0.3,0.2-0.6,0.4-0.9,0.6c-0.3-0.2-0.5-0.5-0.7-0.7c-3.9-4-7.8-7.9-11.8-11.9
			c-0.1-0.1-0.3-0.2-0.3-0.4c0-0.3-0.1-0.7,0-0.9c0.1-0.1,0.6-0.1,0.8,0c0.6,0.5,1,1,1.6,1.5c3.7,3.7,7.3,7.4,11,11.2
			C125.3,25.9,125.4,26,125.6,26.2z M108.6,3.8c2,0,4.1,0,6.1,0c0.6,0,0.9,0.3,0.9,1c0,1,0,2,0,3s0,2,0,3c0,0.6-0.2,1-0.9,1
			c-2.1,0-4.1,0-6.2,0c-0.6,0-0.9-0.3-0.9-0.9c0-2,0-4.1,0-6.1C107.7,4.1,107.9,3.8,108.6,3.8z M108.1,35.5c3,0,6.1,0,9.1,0
			c0.2,0,0.5,0,0.7,0.1c0,0.8-0.3,1.1-1.1,1.1c-2.9,0-5.8,0-8.7,0c-0.4,0-0.7-0.4-1.1-0.6C107.4,35.8,107.7,35.5,108.1,35.5z
			 M117.2,53.8c0.9-0.1,1.3,0.3,1.5,1.2h-9.1c-0.5,0-1,0.1-1.5,0c-0.4-0.1-1-0.3-1-0.6c-0.1-0.7,0.5-0.6,1-0.6c2.1,0,4.2,0,6.3,0
			C115.3,53.8,116.3,53.8,117.2,53.8z M99.1,3.8c2,0,4.1,0,6.1,0c0.6,0,0.9,0.3,0.9,1c0,1,0,2.1,0,3.1c0,1,0,2,0,3
			c0,0.6-0.3,0.9-0.9,0.9c-2.1,0-4.1,0-6.2,0c-0.6,0-0.9-0.3-0.9-0.9c0-2,0-4.1,0-6.1C98.2,4.1,98.5,3.8,99.1,3.8z M99.2,22.8
			c1,0,2.1,0,3.1,0c1,0,2,0,3,0c0.6,0,0.9,0.2,0.9,0.9c0,2.1,0,4.1,0,6.2c0,0.6-0.3,0.9-0.9,0.9c-2,0-4.1,0-6.1,0
			c-0.7,0-0.9-0.3-0.9-0.9c0-2,0-4.1,0-6.1C98.2,23,98.5,22.8,99.2,22.8z M106.1,81.3c0,1,0,2,0,3c0,0.7-0.3,0.9-0.9,0.9
			c-2,0-4,0-6,0c-0.7,0-1-0.3-1-1c0-2,0-4,0-6c0-0.7,0.3-1,1-1c2,0,3.9,0,5.9,0c0.7,0,1.1,0.2,1,1C106.1,79.3,106.1,80.3,106.1,81.3
			z M106.1,54c0,1,0,2,0,3c0,0.6-0.2,0.9-0.8,0.9c-2.1,0-4.1,0-6.2,0c-0.6,0-0.9-0.3-0.9-0.9c0-2.1,0-4.1,0-6.2
			c0-0.6,0.3-0.8,0.9-0.8c2,0,4.1,0,6.1,0c0.7,0,0.9,0.3,0.9,0.9C106.1,52,106.1,53,106.1,54z M99.1,67.8c2.1,0,4.1,0,6.2,0
			c0.6,0,0.9,0.2,0.9,0.9c0,1.1,0,2.1,0,3.2c0,1,0,1.9,0,2.9c0,0.7-0.2,1-0.9,1c-2,0-4.1,0-6.1,0c-0.7,0-0.9-0.3-0.9-0.9
			c0-2,0-4.1,0-6.1C98.2,68.1,98.4,67.8,99.1,67.8z M106.1,36.2c0,1,0,2,0,3c0,0.7-0.3,0.9-0.9,0.9c-2,0-4.1,0-6.1,0
			c-0.7,0-0.9-0.3-0.9-1c0-2,0-4,0-6c0-0.7,0.3-1,1-1c2,0,3.9,0,5.9,0c0.7,0,1.1,0.2,1,1C106.1,34.2,106.1,35.2,106.1,36.2z
			 M123.4,61.9c-5.1,5-10.2,10.1-15.3,15.1c-0.3,0.2-0.9,0.5-1.1,0.4c-0.6-0.5-0.2-0.9,0.2-1.3c0.1-0.1,0.2-0.2,0.4-0.4
			c3.8-3.8,7.6-7.6,11.4-11.4c1.3-1.3,2.6-2.6,3.9-3.9c0.4,0.3,0.7,0.6,1,0.9C123.7,61.6,123.5,61.8,123.4,61.9z M142.9,53.8
			c0,0.9-0.9,1.3-1.7,1.3c-2.8,0-5.6,0-8.4,0c-1.2,0-1.8-0.7-1.8-1.9c0-2.1,0-4.2,0-6.3h3.7v5.2h4.5v-5.2h3.7
			C143,49.2,143,51.5,142.9,53.8z M133.3,43.3c2.4,0,4.8,0,7.3,0c2.1,0,2.7,0.8,2.3,2.9h-11.7C130.6,44.2,131.3,43.3,133.3,43.3z
			 M146.8,55.1v-15h-4.1v-5h8.2v20H146.8z M144.9,65.1c-0.4-1.5-0.4-1.6,0.9-2.1c10.6-4.1,15.6-16,11.1-26.7
			c-0.5,0.9-1.1,1.7-1.4,2.5c-0.4,1-1,1.3-2,1.1c-0.5-0.1-1.1,0-1.7,0v-4.9h4.6c-0.8-1.2-1.4-2.3-2.2-3.2
			c-5.4-6.4-12.2-8.9-20.3-6.9c-8.2,2-13.2,7.5-14.9,15.7c-1.9,9,3.2,18.3,11.7,21.9c1.4,0.6,1.4,0.6,1.2,2.3
			c-6.8-1.7-16.1-9.8-15-22.8c0.9-10.5,10.3-19.3,21.1-19.5c11.4-0.2,21,8.1,22.2,19.4C161.5,54.2,153.1,62.9,144.9,65.1z
			 M127.3,35.1v20h-4.1v-20H127.3z M168.6,76.9c-0.8-0.7-1.4-1.4-2.1-2.1c-4.1-4.2-8.3-8.3-12.4-12.5c-0.2-0.2-0.5-0.5-0.7-0.8
			c0.3-0.2,0.5-0.4,0.7-0.7c0.2,0.2,0.4,0.3,0.6,0.5c4.8,4.8,9.7,9.7,14.5,14.5c0.1,0.1,0.3,0.2,0.3,0.3c0.1,0.3,0,0.6,0.1,0.9
			C169.2,76.9,168.8,77,168.6,76.9z M169,46.3c-2.6,0-5.1,0-7.8,0v-1c0.1,0,0.2-0.1,0.4-0.1c2.5,0,5,0,7.4,0c0.3,0,0.5,0.4,0.8,0.6
			C169.5,46,169.2,46.3,169,46.3z M178.7,81.3c0,1,0,2.1,0,3.1c0,0.6-0.2,0.9-0.9,0.9c-2.1,0-4.1,0-6.2,0c-0.6,0-0.9-0.3-0.9-0.9
			c0-2.1,0-4.1,0-6.2c0-0.6,0.3-0.8,0.9-0.8c2,0,4.1,0,6.1,0c0.6,0,1,0.2,0.9,0.9C178.7,79.3,178.7,80.3,178.7,81.3z M177.7,59.5
			c-1,0-1.9,0-2.9,0c-1,0-1.9,0-2.9,0c-0.8,0-1.1-0.3-1.1-1.1c0-2,0-3.9,0-5.9c0-0.7,0.3-1,1-1c2,0,4,0,6,0c0.7,0,1,0.3,1,1
			c0,2,0,3.9,0,5.9C178.7,59.2,178.4,59.5,177.7,59.5z M178.7,10.7c0,0.7-0.3,1-1,1c-2,0-4,0-6,0c-0.7,0-1-0.3-1-1c0-1,0-2,0-3
			c0-1,0-1.9,0-2.9c0-0.7,0.2-1.1,1-1.1c2,0,3.9,0,5.9,0c0.7,0,1.1,0.3,1.1,1C178.7,6.8,178.7,8.8,178.7,10.7z"/>
	</g>
</g>
<g id="XMLID_144_">
</g>
<g id="XMLID_145_">
</g>
<g id="XMLID_146_">
</g>
<g id="XMLID_147_">
</g>
<g id="XMLID_148_">
</g>
<g id="XMLID_149_">
</g>
</svg>
